<?xml version="1.0" encoding="UTF-8" standalone="no"?>
<svg
   version="1.1"
   width="10.69mm"
   height="9.47mm"
   viewBox="-5.345 -5.295 10.69 9.47"
   id="svg61"
   sodipodi:docname="USB_C_Receptacle_HRO_TYPE-C-31-M-12.svg"
   xml:space="preserve"
   inkscape:version="1.4 (e7c3feb1, 2024-10-09)"
   xmlns:inkscape="http://www.inkscape.org/namespaces/inkscape"
   xmlns:sodipodi="http://sodipodi.sourceforge.net/DTD/sodipodi-0.dtd"
   xmlns="http://www.w3.org/2000/svg"
   xmlns:svg="http://www.w3.org/2000/svg"><defs
     id="defs61" /><sodipodi:namedview
     id="namedview61"
     pagecolor="#505050"
     bordercolor="#eeeeee"
     borderopacity="1"
     inkscape:showpageshadow="0"
     inkscape:pageopacity="0"
     inkscape:pagecheckerboard="0"
     inkscape:deskcolor="#505050"
     inkscape:document-units="mm"
     inkscape:zoom="11.685273"
     inkscape:cx="19.768472"
     inkscape:cy="21.693973"
     inkscape:window-width="1400"
     inkscape:window-height="744"
     inkscape:window-x="0"
     inkscape:window-y="38"
     inkscape:window-maximized="0"
     inkscape:current-layer="svg61" /><title
     id="title1">Picture generated by PcbDraw </title><desc
     id="desc1">Picture generated by PcbDraw</desc><g
     id="g5"
     transform="matrix(0.35834504,0,0,0.35834504,-4.5405902,-3.8858268)"
     style="stroke-width:0.738348">
	<rect
   y="0.73699999"
   fill="#dcdcdc"
   width="25.341999"
   height="20.834999"
   id="rect1"
   x="0"
   style="stroke-width:0.738348" />
	<path
   fill="#dcdcdc"
   d="M 3.458,1.304 H 2.891 V 0 H 3.458 Z M 4.309,0 H 3.742 V 1.304 H 4.309 Z M 5.726,0 H 5.159 v 1.304 h 0.567 z m 0.85,0 H 6.009 V 1.304 H 6.576 Z M 7.994,0 H 7.427 V 1.304 H 7.994 Z M 9.411,0 H 8.844 v 1.304 h 0.567 z m 1.417,0 h -0.567 v 1.304 h 0.567 z m 1.418,0 h -0.567 v 1.304 h 0.567 z m 1.417,0 h -0.567 v 1.304 h 0.567 z m 1.417,0 h -0.567 v 1.304 h 0.567 z m 1.418,0 h -0.567 v 1.304 h 0.567 z m 1.417,0 h -0.567 v 1.304 h 0.567 z m 1.417,0 h -0.567 v 1.304 h 0.567 z m 0.851,0 h -0.567 v 1.304 h 0.567 z M 21.6,0 H 21.033 V 1.304 H 21.6 Z m 0.85,0 h -0.567 v 1.304 h 0.567 z"
   id="path1-7"
   style="stroke-width:0.738348" />
	<rect
   x="2.0439999"
   y="0.73699999"
   fill="#f0f0f0"
   width="1.2970001"
   height="20.834999"
   id="rect2"
   style="stroke-width:0.738348" />
	<rect
   x="22"
   y="0.73699999"
   fill="#bebebe"
   width="1.2970001"
   height="20.834999"
   id="rect3"
   style="stroke-width:0.738348" />
	<path
   fill="#8c8c8c"
   d="m 25.342,0.737 v 1.998 h -0.283 c -0.344,0 -0.624,-0.279 -0.624,-0.624 V 1.579 c 0,-0.344 -0.279,-0.624 -0.624,-0.624 H 20.98 c -0.344,0 -0.624,0.279 -0.624,0.624 V 3.6 c 0,0.344 -0.279,0.624 -0.624,0.624 H 16.319 C 15.975,4.224 15.695,3.945 15.695,3.6 V 3.553 c 0,-0.344 0.279,-0.624 0.624,-0.624 h 1.536 c 0.344,0 0.624,-0.279 0.624,-0.624 V 1.579 C 18.479,1.235 18.2,0.955 17.855,0.955 H 7.485 c -0.344,0 -0.624,0.279 -0.624,0.624 v 0.727 c 0,0.344 0.279,0.624 0.624,0.624 h 1.536 c 0.344,0 0.624,0.279 0.624,0.624 V 3.6 c 0,0.344 -0.279,0.624 -0.624,0.624 H 5.608 C 5.264,4.224 4.984,3.945 4.984,3.6 V 1.579 C 4.984,1.235 4.705,0.955 4.36,0.955 H 1.53 c -0.344,0 -0.624,0.279 -0.624,0.624 v 0.533 c 0,0.344 -0.279,0.624 -0.624,0.624 H 0 V 0.737 Z"
   id="path3-3"
   style="stroke-width:0.738348" />
	<rect
   x="5.8899999"
   y="6.5539999"
   fill="#8c8c8c"
   width="3.4630001"
   height="1.424"
   id="rect4"
   style="stroke-width:0.738348" />
	
		<rect
   x="15.988"
   y="6.5539999"
   transform="rotate(180,17.7198,7.26635)"
   fill="#8c8c8c"
   width="3.4630001"
   height="1.424"
   id="rect5"
   style="stroke-width:0.738348" />
</g><rect
     id="origin"
     fill="red"
     width="1.0"
     height="1.0"
     x="0"
     y="0" /></svg>
