<?xml version="1.0" encoding="UTF-8" standalone="no"?>
<svg
   version="1.1"
   width="11.254mm"
   height="7.3835mm"
   viewBox="-5.627 -2.286 11.254 7.3835"
   id="svg21"
   sodipodi:docname="FPC-SMD_FPC05012-09200.svg"
   inkscape:version="1.4 (e7c3feb1, 2024-10-09)"
   xml:space="preserve"
   xmlns:inkscape="http://www.inkscape.org/namespaces/inkscape"
   xmlns:sodipodi="http://sodipodi.sourceforge.net/DTD/sodipodi-0.dtd"
   xmlns="http://www.w3.org/2000/svg"
   xmlns:svg="http://www.w3.org/2000/svg"><defs
     id="defs21" /><sodipodi:namedview
     id="namedview21"
     pagecolor="#505050"
     bordercolor="#eeeeee"
     borderopacity="1"
     inkscape:showpageshadow="0"
     inkscape:pageopacity="0"
     inkscape:pagecheckerboard="0"
     inkscape:deskcolor="#505050"
     inkscape:document-units="mm"
     inkscape:zoom="13.127392"
     inkscape:cx="17.368263"
     inkscape:cy="14.854435"
     inkscape:window-width="1288"
     inkscape:window-height="811"
     inkscape:window-x="0"
     inkscape:window-y="38"
     inkscape:window-maximized="0"
     inkscape:current-layer="svg21" /><title
     id="title1">Picture generated by PcbDraw </title><desc
     id="desc1">Picture generated by PcbDraw</desc><rect
     style="fill:#000000;fill-opacity:1;stroke:none;stroke-width:0.0102212;stroke-linejoin:round;stroke-dasharray:none;stroke-opacity:1"
     id="rect243"
     width="9.3502703"
     height="1.1845597"
     x="-4.5500002"
     y="2.3625" /><rect
     style="fill:#cccccc;fill-opacity:1;stroke:none;stroke-width:0.0119127;stroke-linejoin:round;stroke-dasharray:none;stroke-opacity:1"
     id="rect126"
     width="0.15778838"
     height="1.7990432"
     x="-5.3589582"
     y="0.66295791" /><rect
     style="fill:#cccccc;fill-opacity:1;stroke:none;stroke-width:0.01;stroke-linejoin:round;stroke-dasharray:none;stroke-opacity:1"
     id="rect230"
     width="0.1562147"
     height="1.7999997"
     x="5.203815"
     y="0.66200042" /><g
     id="g242"
     style="stroke:none;fill:#cccccc;fill-opacity:1"><path
       style="fill:#cccccc;fill-opacity:1;fill-rule:evenodd;stroke:none;stroke-width:0.0188219;stroke-miterlimit:4;stroke-dasharray:none;stroke-opacity:1"
       d="m 2.3234187,-1.1302389 v 0.01 0.016521 0.022833 0.02886 0.034497 0.039755 0.044487 0.048657 0.052217 0.05512 0.057329 0.058818 0.059534 H 2.1735942 v -0.059538 -0.058818 -0.057329 -0.055121 -0.052217 -0.048657 -0.044488 -0.039755 -0.034497 -0.02886 -0.022833 -0.016521 -0.01 -0.00335 h 0.1498245 z"
       id="path228" /><path
       style="fill:#cccccc;fill-opacity:1;fill-rule:evenodd;stroke:none;stroke-width:0.0188219;stroke-miterlimit:4;stroke-dasharray:none;stroke-opacity:1"
       d="m -1.821728,-1.133584 v 0.00335 0.01 0.016521 0.022833 0.02886 0.034497 0.039755 0.044487 0.048657 0.052217 0.05512 0.057329 0.058818 0.059538 h 0.149825 v -0.059538 -0.058818 -0.057329 -0.05512 -0.052217 -0.048657 -0.044487 -0.039755 -0.034497 -0.02886 -0.022833 -0.016521 -0.01 -0.00335 z"
       id="path224" /><path
       style="fill:#cccccc;fill-opacity:1;fill-rule:evenodd;stroke:none;stroke-width:0.0188219;stroke-miterlimit:4;stroke-dasharray:none;stroke-opacity:1"
       d="m -1.322313,-1.133584 v 0.00335 0.01 0.016521 0.022833 0.02886 0.034497 0.039755 0.044487 0.048657 0.052217 0.05512 0.057329 0.058818 0.059534 h 0.149825 v -0.059538 -0.058818 -0.057329 -0.055121 -0.052217 -0.048657 -0.044488 -0.039755 -0.034497 -0.02886 -0.022833 -0.016521 -0.01 -0.00335 z"
       id="path219" /><path
       style="fill:#cccccc;fill-opacity:1;fill-rule:evenodd;stroke:none;stroke-width:0.0188219;stroke-miterlimit:4;stroke-dasharray:none;stroke-opacity:1"
       d="m -0.673073,-1.1302378 v 0.01 0.016521 0.022833 0.02886 0.034497 0.039755 0.044487 0.048657 0.052217 0.05512 0.057329 0.058818 0.059538 h -0.149824 v -0.059538 -0.058818 -0.057329 -0.05512 -0.052217 -0.048657 -0.044487 -0.039755 -0.034497 -0.02886 -0.022833 -0.016521 -0.01 -0.00335 l 0.149824,4e-7 z"
       id="path215" /><path
       style="fill:#cccccc;fill-opacity:1;fill-rule:evenodd;stroke:none;stroke-width:0.0188219;stroke-miterlimit:4;stroke-dasharray:none;stroke-opacity:1"
       d="m -0.323483,-1.133584 v 0.00335 0.01 0.016521 0.022833 0.02886 0.034497 0.039755 0.044487 0.048657 0.052217 0.05512 0.057329 0.058818 0.059538 h 0.149825 v -0.059538 -0.058818 -0.057329 -0.05512 -0.052217 -0.048657 -0.044487 -0.039755 -0.034497 -0.02886 -0.022833 -0.016521 -0.01 -0.00335 z"
       id="path205" /><path
       style="fill:#cccccc;fill-opacity:1;fill-rule:evenodd;stroke:none;stroke-width:0.0188219;stroke-miterlimit:4;stroke-dasharray:none;stroke-opacity:1"
       d="m 0.325758,-1.1302382 v 0.01 0.016521 0.022833 0.02886 0.034497 0.039755 0.044487 0.048657 0.052217 0.05512 0.057329 0.058815 0.059534 H 0.175933 v -0.059538 -0.058818 -0.057329 -0.05512 -0.052217 -0.048657 -0.044487 -0.039755 -0.034497 -0.02886 -0.022833 -0.016521 -0.01 -0.00335 l 0.149825,3e-7 z"
       id="path201" /><path
       style="fill:#cccccc;fill-opacity:1;fill-rule:evenodd;stroke:none;stroke-width:0.0188219;stroke-miterlimit:4;stroke-dasharray:none;stroke-opacity:1"
       d="m 0.6753483,-1.1335826 v 0.00335 0.01 0.016521 0.022833 0.02886 0.034497 0.039755 0.044488 0.048657 0.052217 0.055121 0.057329 0.058815 0.059534 h 0.1498246 v -0.059538 -0.058818 -0.057329 -0.055121 -0.052217 -0.048657 -0.044487 -0.039755 -0.034497 -0.02886 -0.022833 -0.016521 -0.01 -0.00335 z"
       id="path195" /><path
       style="fill:#cccccc;fill-opacity:1;fill-rule:evenodd;stroke:none;stroke-width:0.0188219;stroke-miterlimit:4;stroke-dasharray:none;stroke-opacity:1"
       d="m 2.822834,-1.1302382 v 0.01 0.016521 0.022833 0.02886 0.034497 0.039755 0.044487 0.048657 0.052217 0.05512 0.057329 0.058783 0.059566 H 2.6730093 v -0.05957 -0.058786 -0.057329 -0.05512 -0.052217 -0.048657 -0.044487 -0.039755 -0.034497 -0.02886 -0.022833 -0.016521 -0.01 -0.00335 H 2.822834 Z"
       id="path190" /><path
       style="fill:#cccccc;fill-opacity:1;fill-rule:evenodd;stroke:none;stroke-width:0.0188219;stroke-miterlimit:4;stroke-dasharray:none;stroke-opacity:1"
       d="m 1.324588,-1.1302403 v 0.01 0.016521 0.022833 0.02886 0.034497 0.039755 0.044487 0.048657 0.052217 0.055121 0.057329 0.058815 0.059538 H 1.1747634 v -0.059538 -0.058818 -0.057329 -0.055121 -0.052217 -0.048658 -0.044488 -0.039755 -0.034497 -0.02886 -0.022833 -0.016521 -0.01 -0.00335 H 1.324588 Z"
       id="path183" /><path
       style="fill:#cccccc;fill-opacity:1;fill-rule:evenodd;stroke:none;stroke-width:0.0188219;stroke-miterlimit:4;stroke-dasharray:none;stroke-opacity:1"
       d="m -2.820559,-1.133584 v 0.00335 0.01 0.016521 0.022833 0.02886 0.034497 0.039755 0.044487 0.048657 0.052217 0.05512 0.057329 0.058818 0.059534 h 0.149826 v -0.059538 -0.058818 -0.057329 -0.055121 -0.052217 -0.048657 -0.044488 -0.039755 -0.034497 -0.02886 -0.022833 -0.016521 -0.01 -0.00335 z"
       id="path178" /><path
       style="fill:#cccccc;fill-opacity:1;fill-rule:evenodd;stroke:none;stroke-width:0.0188219;stroke-miterlimit:4;stroke-dasharray:none;stroke-opacity:1"
       d="m 1.6741788,-1.1335833 v 0.00335 0.01 0.016521 0.022833 0.02886 0.034497 0.039755 0.044487 0.048657 0.052217 0.055121 0.057329 0.058815 0.059534 h 0.1498246 v -0.059538 -0.058818 -0.057329 -0.055121 -0.052217 -0.048657 -0.044488 -0.039755 -0.034497 -0.02886 -0.022833 -0.016521 -0.01 -0.00335 z"
       id="path174" /><path
       style="fill:#cccccc;fill-opacity:1;fill-rule:evenodd;stroke:none;stroke-width:0.0188219;stroke-miterlimit:4;stroke-dasharray:none;stroke-opacity:1"
       d="m -2.171319,-1.1302382 v 0.01 0.016521 0.022833 0.02886 0.034497 0.039755 0.044487 0.048657 0.052217 0.05512 0.057329 0.058815 0.059534 h -0.149824 v -0.059538 -0.058818 -0.057329 -0.05512 -0.052217 -0.048657 -0.044487 -0.039755 -0.034497 -0.02886 -0.022833 -0.016521 -0.01 -0.00335 l 0.149824,3e-7 z"
       id="path169" /></g><g
     id="g243"
     style="stroke:none;fill:#cccccc;fill-opacity:1"><path
       style="fill:#cccccc;fill-opacity:1;fill-rule:evenodd;stroke:none;stroke-width:0.0101085;stroke-miterlimit:4;stroke-dasharray:none;stroke-opacity:1"
       d="m 2.3235305,2.8629684 v 0.00288 0.00477 0.00659 0.00832 0.00995 0.011467 0.012831 0.014034 0.015061 0.015898 0.016536 0.016965 0.017171 H 2.173706 v -0.017173 -0.016965 -0.016535 -0.015899 -0.015061 -0.014034 -0.012832 -0.011467 -0.00995 -0.00832 -0.00659 -0.00477 -0.00288 -9.663e-4 h 0.1498245 z"
       id="path232" /><path
       style="fill:#cccccc;fill-opacity:1;fill-rule:evenodd;stroke:none;stroke-width:0.0101085;stroke-miterlimit:4;stroke-dasharray:none;stroke-opacity:1"
       d="m -1.821616,2.8620036 v 9.662e-4 0.00288 0.00477 0.00659 0.00832 0.00995 0.011467 0.012831 0.014034 0.015061 0.015898 0.016535 0.016965 0.017173 h 0.149825 v -0.017173 -0.016965 -0.016535 -0.015898 -0.015061 -0.014034 -0.012831 -0.011467 -0.00995 -0.00832 -0.00659 -0.00477 -0.00288 -9.662e-4 z"
       id="path233" /><path
       style="fill:#cccccc;fill-opacity:1;fill-rule:evenodd;stroke:none;stroke-width:0.0101085;stroke-miterlimit:4;stroke-dasharray:none;stroke-opacity:1"
       d="m -1.322201,2.8620036 v 9.662e-4 0.00288 0.00477 0.00659 0.00832 0.00995 0.011467 0.012831 0.014034 0.015061 0.015898 0.016535 0.016965 0.017171 h 0.149825 v -0.017173 -0.016965 -0.016535 -0.015899 -0.015061 -0.014034 -0.012832 -0.011467 -0.00995 -0.00832 -0.00659 -0.00477 -0.00288 -9.663e-4 z"
       id="path234" /><path
       style="fill:#cccccc;fill-opacity:1;fill-rule:evenodd;stroke:none;stroke-width:0.0101085;stroke-miterlimit:4;stroke-dasharray:none;stroke-opacity:1"
       d="m -0.672961,2.8629687 v 0.00288 0.00477 0.00659 0.00832 0.00995 0.011467 0.012831 0.014034 0.015061 0.015898 0.016536 0.016965 0.017173 h -0.149824 v -0.017173 -0.016965 -0.016536 -0.015898 -0.015061 -0.014034 -0.012831 -0.011467 -0.00995 -0.00832 -0.00659 -0.00477 -0.00288 -9.662e-4 l 0.149824,10e-8 z"
       id="path235" /><path
       style="fill:#cccccc;fill-opacity:1;fill-rule:evenodd;stroke:none;stroke-width:0.0101085;stroke-miterlimit:4;stroke-dasharray:none;stroke-opacity:1"
       d="m -0.323371,2.8620036 v 9.662e-4 0.00288 0.00477 0.00659 0.00832 0.00995 0.011467 0.012831 0.014034 0.015061 0.015898 0.016535 0.016965 0.017173 h 0.149825 v -0.017173 -0.016965 -0.016535 -0.015898 -0.015061 -0.014034 -0.012831 -0.011467 -0.00995 -0.00832 -0.00659 -0.00477 -0.00288 -9.662e-4 z"
       id="path236" /><path
       style="fill:#cccccc;fill-opacity:1;fill-rule:evenodd;stroke:none;stroke-width:0.0101085;stroke-miterlimit:4;stroke-dasharray:none;stroke-opacity:1"
       d="m 0.32587,2.8629686 v 0.00288 0.00477 0.00659 0.00832 0.00995 0.011467 0.012831 0.014034 0.015061 0.015898 0.016536 0.016964 0.017172 H 0.176045 v -0.017173 -0.016965 -0.016536 -0.015898 -0.015061 -0.014034 -0.012831 -0.011467 -0.00995 -0.00832 -0.00659 -0.00477 -0.00288 -9.663e-4 l 0.149825,10e-8 z"
       id="path237" /><path
       style="fill:#cccccc;fill-opacity:1;fill-rule:evenodd;stroke:none;stroke-width:0.0101085;stroke-miterlimit:4;stroke-dasharray:none;stroke-opacity:1"
       d="m 0.6754601,2.862004 v 9.662e-4 0.00288 0.00477 0.00659 0.00832 0.00995 0.011467 0.012832 0.014034 0.015061 0.015899 0.016536 0.016964 0.017172 h 0.1498246 v -0.017173 -0.016965 -0.016536 -0.015899 -0.015061 -0.014034 -0.012831 -0.011467 -0.00995 -0.00832 -0.00659 -0.00477 -0.00288 -9.663e-4 z"
       id="path238" /><path
       style="fill:#cccccc;fill-opacity:1;fill-rule:evenodd;stroke:none;stroke-width:0.0101085;stroke-miterlimit:4;stroke-dasharray:none;stroke-opacity:1"
       d="m 2.8229458,2.8629686 v 0.00288 0.00477 0.00659 0.00832 0.00995 0.011467 0.012831 0.014034 0.015061 0.015898 0.016536 0.016955 0.017181 H 2.6731211 v -0.017182 -0.016956 -0.016536 -0.015898 -0.015061 -0.014034 -0.012831 -0.011467 -0.00995 -0.00832 -0.00659 -0.00477 -0.00288 -9.663e-4 h 0.1498247 z"
       id="path239" /><path
       style="fill:#cccccc;fill-opacity:1;fill-rule:evenodd;stroke:none;stroke-width:0.0101085;stroke-miterlimit:4;stroke-dasharray:none;stroke-opacity:1"
       d="m 1.3246998,2.862968 v 0.00288 0.00477 0.00659 0.00832 0.00995 V 2.906945 2.919776 2.93381 2.948871 2.96477 2.981306 2.99827 3.015443 H 1.1748752 V 2.99827 2.981305 2.96477 2.948871 2.93381 2.919776 2.906944 2.895477 2.885527 2.877207 2.870617 2.865847 2.862967 2.8620008 h 0.1498246 z"
       id="path240" /><path
       style="fill:#cccccc;fill-opacity:1;fill-rule:evenodd;stroke:none;stroke-width:0.0101085;stroke-miterlimit:4;stroke-dasharray:none;stroke-opacity:1"
       d="m -2.820447,2.8620036 v 9.662e-4 0.00288 0.00477 0.00659 0.00832 0.00995 0.011467 0.012831 0.014034 0.015061 0.015898 0.016535 0.016965 0.017171 h 0.149826 v -0.017173 -0.016965 -0.016535 -0.015899 -0.015061 -0.014034 -0.012832 -0.011467 -0.00995 -0.00832 -0.00659 -0.00477 -0.00288 -9.663e-4 z"
       id="path241" /><path
       style="fill:#cccccc;fill-opacity:1;fill-rule:evenodd;stroke:none;stroke-width:0.0101085;stroke-miterlimit:4;stroke-dasharray:none;stroke-opacity:1"
       d="M 1.6742906,2.8620038 V 2.86297 2.86585 2.87062 2.87721 2.88553 2.89548 2.906947 2.919778 2.933812 2.948873 2.964772 2.981308 2.998272 3.015444 H 1.8241152 V 2.998271 2.981306 2.96477 2.948871 2.93381 2.919776 2.906944 2.895477 2.885527 2.877207 2.870617 2.865847 2.862967 2.8620008 Z"
       id="path242" /><path
       style="fill:#cccccc;fill-opacity:1;fill-rule:evenodd;stroke:none;stroke-width:0.0101085;stroke-miterlimit:4;stroke-dasharray:none;stroke-opacity:1"
       d="m -2.322,2.8620036 v 9.662e-4 0.00288 0.00477 0.00659 0.00832 0.00995 0.011467 0.012831 0.014034 0.015061 0.015898 0.016535 0.016965 0.017171 h 0.149826 v -0.017173 -0.016965 -0.016535 -0.015899 -0.015061 -0.014034 -0.012832 -0.011467 -0.00995 -0.00832 -0.00659 -0.00477 -0.00288 -9.663e-4 z"
       id="path243" /></g><path
     style="fill:#ede2ae;fill-opacity:1;fill-rule:evenodd;stroke:none;stroke-width:0.01;stroke-miterlimit:4;stroke-dasharray:none;stroke-opacity:1"
     d="m 5.20003,3.9620003 h -0.8 v -1.4 h -0.8 l -0.6,0.3 h -6 l -0.6,-0.3 h -0.8 v 1.4 h -0.8 v -4.6 h 2.325 v 0.05 h 0.25 v -0.05 h 0.25 v 0.05 h 0.25 v -0.05 h 0.25 v 0.05 h 0.25 v -0.05 h 0.25 v 0.05 h 0.25 v -0.05 h 0.25 v 0.05 h 0.25 v -0.05 h 0.25 v 0.05 h 0.25 v -0.05 h 0.25 v 0.05 h 0.25 v -0.05 h 0.25 v 0.05 h 0.25 v -0.05 h 0.25 v 0.05 h 0.25 v -0.05 h 0.25 v 0.05 h 0.25 v -0.05 h 0.25 v 0.05 h 0.25 v -0.05 h 0.25 v 0.05 h 0.25 v -0.05 h 2.325 z"
     id="path167"
     sodipodi:nodetypes="ccccccccccccccccccccccccccccccccccccccccccccccccccccccccccccc" /><path
     id="path209"
     style="fill:#444444;fill-opacity:1;fill-rule:evenodd;stroke:none;stroke-width:0.01;stroke-miterlimit:4;stroke-dasharray:none;stroke-opacity:1"
     d="m 4.7000182,4.8117593 c 0.055229,0 0.1002523,-0.044507 0.1002523,-0.099736 V 4.0619337 L 4.7000182,3.9621977 H 4.3501688 V 3.0118681 H -4.350075 v 0.4501018 0.5002278 h -0.34985 l -0.100252,0.099736 1.02e-4,0.6500781 c 1.02e-4,0.055217 0.04487,0.099989 0.100102,0.099989 l 2.5e-5,-1.207e-4 z"
     sodipodi:nodetypes="ssccccccccccscs" /><rect
     id="origin"
     fill="red"
     width="1.0"
     height="1.0"
     x="0"
     y="0" /></svg>
