<?xml version="1.0" encoding="UTF-8" standalone="no"?>
<svg
   version="1.1"
   width="8.054mm"
   height="4.5056mm"
   viewBox="-4.027 -1.7625 8.054 4.5056"
   id="svg29"
   sodipodi:docname="FPC-SMD_21P-P0.30_HDGC_0.3K-QX-21PWB.svg"
   inkscape:version="1.4 (e7c3feb1, 2024-10-09)"
   xml:space="preserve"
   xmlns:inkscape="http://www.inkscape.org/namespaces/inkscape"
   xmlns:sodipodi="http://sodipodi.sourceforge.net/DTD/sodipodi-0.dtd"
   xmlns="http://www.w3.org/2000/svg"
   xmlns:svg="http://www.w3.org/2000/svg"><defs
     id="defs29"><marker
       id="DistanceX"
       orient="auto"
       refX="0.0"
       refY="0.0"
       style="overflow:visible"><path
         d="M 3,-3 L -3,3 M 0,-5 L  0,5"
         style="stroke:#000000; stroke-width:0.5"
         id="path1-3" /></marker><pattern
       id="Hatch"
       patternUnits="userSpaceOnUse"
       width="8"
       height="8"
       x="0"
       y="0"><path
         d="M8 4 l-4,4"
         stroke="#000000"
         stroke-width="0.25"
         linecap="square"
         id="path2-9" /><path
         d="M6 2 l-4,4"
         stroke="#000000"
         stroke-width="0.25"
         linecap="square"
         id="path3-6" /><path
         d="M4 0 l-4,4"
         stroke="#000000"
         stroke-width="0.25"
         linecap="square"
         id="path4-3" /></pattern><symbol
       id="*MODEL_SPACE" /><symbol
       id="*PAPER_SPACE" /></defs><sodipodi:namedview
     id="namedview29"
     pagecolor="#505050"
     bordercolor="#eeeeee"
     borderopacity="1"
     inkscape:showpageshadow="0"
     inkscape:pageopacity="0"
     inkscape:pagecheckerboard="0"
     inkscape:deskcolor="#505050"
     inkscape:document-units="mm"
     inkscape:zoom="8.1068944"
     inkscape:cx="21.709916"
     inkscape:cy="-1.7269252"
     inkscape:window-width="1400"
     inkscape:window-height="799"
     inkscape:window-x="0"
     inkscape:window-y="38"
     inkscape:window-maximized="0"
     inkscape:current-layer="svg29" /><title
     id="title1">Picture generated by PcbDraw </title><desc
     id="desc1">Picture generated by PcbDraw</desc><path
     style="fill:#000000;fill-opacity:1;stroke:none;stroke-width:0.264583px;stroke-linecap:butt;stroke-linejoin:miter;stroke-dasharray:none;stroke-opacity:1"
     d="M -3.7100001,1.5899875 H 3.7099997 V 0.78998759 l 0.1899999,0.001119 v -0.776119 h -7.7999997 v 0.7798241 l 0.19,-0.004824 z"
     id="path145" /><g
     id="faceFeat"
     transform="matrix(1,0,0,-1,-1.2708333e-7,0.46498758)"
     style="display:inline;fill:#cccccc;stroke:#e300d9;stroke-width:0.1;stroke-dasharray:none;stroke-opacity:1;fill-opacity:1"
     inkscape:label="pins"><title
       id="title1-2">b'faceFeat'</title><path
       style="fill:#cccccc;fill-rule:evenodd;stroke:none;stroke-width:0.0133619;stroke-miterlimit:4;stroke-dasharray:none;stroke-opacity:1;fill-opacity:1"
       d="M 2.46,0.37324968 V -0.42957469 H 2.34 v 0.80282437 z"
       id="path115"
       sodipodi:nodetypes="ccccc" /><path
       style="fill:#cccccc;fill-rule:evenodd;stroke:none;stroke-width:0.0133619;stroke-miterlimit:4;stroke-dasharray:none;stroke-opacity:1;fill-opacity:1"
       d="M 1.86,0.37324968 V -0.42957469 H 1.74 v 0.80282437 z"
       id="path116"
       sodipodi:nodetypes="ccccc" /><path
       style="fill:#cccccc;fill-rule:evenodd;stroke:none;stroke-width:0.0133619;stroke-miterlimit:4;stroke-dasharray:none;stroke-opacity:1;fill-opacity:1"
       d="M 1.26,0.37324968 V -0.42957469 H 1.14 v 0.80282437 z"
       id="path117"
       sodipodi:nodetypes="ccccc" /><path
       style="fill:#cccccc;fill-rule:evenodd;stroke:none;stroke-width:0.0133619;stroke-miterlimit:4;stroke-dasharray:none;stroke-opacity:1;fill-opacity:1"
       d="M 0.66,0.37324968 V -0.42957469 H 0.54 v 0.80282437 z"
       id="path118"
       sodipodi:nodetypes="ccccc" /><path
       style="fill:#cccccc;fill-rule:evenodd;stroke:none;stroke-width:0.0133619;stroke-miterlimit:4;stroke-dasharray:none;stroke-opacity:1;fill-opacity:1"
       d="M 0.06,0.37324968 V -0.42957469 H -0.06 V 0.37324968 Z"
       id="path119"
       sodipodi:nodetypes="ccccc" /><path
       style="fill:#cccccc;fill-rule:evenodd;stroke:none;stroke-width:0.0133619;stroke-miterlimit:4;stroke-dasharray:none;stroke-opacity:1;fill-opacity:1"
       d="M -0.54,0.375 V -0.42782437 H -0.66 V 0.375 Z"
       id="path120"
       sodipodi:nodetypes="ccccc" /><path
       style="fill:#cccccc;fill-rule:evenodd;stroke:none;stroke-width:0.0133619;stroke-miterlimit:4;stroke-dasharray:none;stroke-opacity:1;fill-opacity:1"
       d="M -1.14,0.375 V -0.42782437 H -1.26 V 0.375 Z"
       id="path121"
       sodipodi:nodetypes="ccccc" /><path
       style="fill:#cccccc;fill-rule:evenodd;stroke:none;stroke-width:0.0133619;stroke-miterlimit:4;stroke-dasharray:none;stroke-opacity:1;fill-opacity:1"
       d="M -1.74,0.37324968 V -0.42957469 H -1.86 V 0.37324968 Z"
       id="path122"
       sodipodi:nodetypes="ccccc" /><path
       style="fill:#cccccc;fill-rule:evenodd;stroke:none;stroke-width:0.0133619;stroke-miterlimit:4;stroke-dasharray:none;stroke-opacity:1;fill-opacity:1"
       d="M -2.34,0.37324968 V -0.42957469 H -2.46 V 0.37324968 Z"
       id="path123"
       sodipodi:nodetypes="ccccc" /><path
       style="fill:#cccccc;fill-rule:evenodd;stroke:none;stroke-width:0.0133619;stroke-miterlimit:4;stroke-dasharray:none;stroke-opacity:1;fill-opacity:1"
       d="M -2.94,0.37324968 V -0.42957469 H -3.06 V 0.37324968 Z"
       id="path124"
       sodipodi:nodetypes="ccccc" /><path
       style="fill:#cccccc;fill-rule:evenodd;stroke:none;stroke-width:0.0115514;stroke-miterlimit:4;stroke-dasharray:none;stroke-opacity:1;fill-opacity:1"
       d="m 2.76,0.375 v -0.6 H 2.64 v 0.6 z"
       id="path125"
       sodipodi:nodetypes="ccccc" /><path
       style="fill:#cccccc;fill-rule:evenodd;stroke:none;stroke-width:0.0115514;stroke-miterlimit:4;stroke-dasharray:none;stroke-opacity:1;fill-opacity:1"
       d="m 2.16,0.375 v -0.6 H 2.04 v 0.6 z"
       id="path126"
       sodipodi:nodetypes="ccccc" /><path
       style="fill:#cccccc;fill-rule:evenodd;stroke:none;stroke-width:0.0115514;stroke-miterlimit:4;stroke-dasharray:none;stroke-opacity:1;fill-opacity:1"
       d="m 1.56,0.375 v -0.6 H 1.44 v 0.6 z"
       id="path127"
       sodipodi:nodetypes="ccccc" /><path
       style="fill:#cccccc;fill-rule:evenodd;stroke:none;stroke-width:0.0115514;stroke-miterlimit:4;stroke-dasharray:none;stroke-opacity:1;fill-opacity:1"
       d="m 0.96,0.375 v -0.6 H 0.84 v 0.6 z"
       id="path128"
       sodipodi:nodetypes="ccccc" /><path
       style="fill:#cccccc;fill-rule:evenodd;stroke:none;stroke-width:0.0115514;stroke-miterlimit:4;stroke-dasharray:none;stroke-opacity:1;fill-opacity:1"
       d="m 0.36,0.375 v -0.6 H 0.24 v 0.6 z"
       id="path129"
       sodipodi:nodetypes="ccccc" /><path
       style="fill:#cccccc;fill-rule:evenodd;stroke:none;stroke-width:0.0115514;stroke-miterlimit:4;stroke-dasharray:none;stroke-opacity:1;fill-opacity:1"
       d="m -0.24,0.375 v -0.6 h -0.12 v 0.6 z"
       id="path130"
       sodipodi:nodetypes="ccccc" /><path
       style="fill:#cccccc;fill-rule:evenodd;stroke:none;stroke-width:0.0115514;stroke-miterlimit:4;stroke-dasharray:none;stroke-opacity:1;fill-opacity:1"
       d="m -0.84,0.375 v -0.6 h -0.12 v 0.6 z"
       id="path131"
       sodipodi:nodetypes="ccccc" /><path
       style="fill:#cccccc;fill-rule:evenodd;stroke:none;stroke-width:0.0115514;stroke-miterlimit:4;stroke-dasharray:none;stroke-opacity:1;fill-opacity:1"
       d="m -1.44,0.375 v -0.6 h -0.12 v 0.6 z"
       id="path132"
       sodipodi:nodetypes="ccccc" /><path
       style="fill:#cccccc;fill-rule:evenodd;stroke:none;stroke-width:0.0115514;stroke-miterlimit:4;stroke-dasharray:none;stroke-opacity:1;fill-opacity:1"
       d="m -2.04,0.375 v -0.6 h -0.12 v 0.6 z"
       id="path133"
       sodipodi:nodetypes="ccccc" /><path
       style="fill:#cccccc;fill-rule:evenodd;stroke:none;stroke-width:0.0115514;stroke-miterlimit:4;stroke-dasharray:none;stroke-opacity:1;fill-opacity:1"
       d="m -2.64,0.375 v -0.6 h -0.12 v 0.6 z"
       id="path134"
       sodipodi:nodetypes="ccccc" /><path
       style="fill:#cccccc;fill-rule:evenodd;stroke:none;stroke-width:0.0110596;stroke-miterlimit:4;stroke-dasharray:none;stroke-opacity:1;fill-opacity:1"
       d="M 2.76,1.925 V 1.375 H 2.64 v 0.55 z"
       id="path135"
       sodipodi:nodetypes="ccccc" /><path
       style="fill:#cccccc;fill-rule:evenodd;stroke:none;stroke-width:0.0110596;stroke-miterlimit:4;stroke-dasharray:none;stroke-opacity:1;fill-opacity:1"
       d="M 2.16,1.925 V 1.375 H 2.04 v 0.55 z"
       id="path136"
       sodipodi:nodetypes="ccccc" /><path
       style="fill:#cccccc;fill-rule:evenodd;stroke:none;stroke-width:0.0110596;stroke-miterlimit:4;stroke-dasharray:none;stroke-opacity:1;fill-opacity:1"
       d="M 1.56,1.925 V 1.375 H 1.44 v 0.55 z"
       id="path137"
       sodipodi:nodetypes="ccccc" /><path
       style="fill:#cccccc;fill-rule:evenodd;stroke:none;stroke-width:0.0110596;stroke-miterlimit:4;stroke-dasharray:none;stroke-opacity:1;fill-opacity:1"
       d="M 0.96,1.925 V 1.375 H 0.84 v 0.55 z"
       id="path138"
       sodipodi:nodetypes="ccccc" /><path
       style="fill:#cccccc;fill-rule:evenodd;stroke:none;stroke-width:0.0110596;stroke-miterlimit:4;stroke-dasharray:none;stroke-opacity:1;fill-opacity:1"
       d="M 0.36,1.925 V 1.375 H 0.24 v 0.55 z"
       id="path139"
       sodipodi:nodetypes="ccccc" /><path
       style="fill:#cccccc;fill-rule:evenodd;stroke:none;stroke-width:0.0110596;stroke-miterlimit:4;stroke-dasharray:none;stroke-opacity:1;fill-opacity:1"
       d="m -0.24,1.925 v -0.55 h -0.12 v 0.55 z"
       id="path140"
       sodipodi:nodetypes="ccccc" /><path
       style="fill:#cccccc;fill-rule:evenodd;stroke:none;stroke-width:0.0110596;stroke-miterlimit:4;stroke-dasharray:none;stroke-opacity:1;fill-opacity:1"
       d="m -0.84,1.925 v -0.55 h -0.12 v 0.55 z"
       id="path141"
       sodipodi:nodetypes="ccccc" /><path
       style="fill:#cccccc;fill-rule:evenodd;stroke:none;stroke-width:0.0110596;stroke-miterlimit:4;stroke-dasharray:none;stroke-opacity:1;fill-opacity:1"
       d="m -1.44,1.925 v -0.55 h -0.12 v 0.55 z"
       id="path142"
       sodipodi:nodetypes="ccccc" /><path
       style="fill:#cccccc;fill-rule:evenodd;stroke:none;stroke-width:0.0110596;stroke-miterlimit:4;stroke-dasharray:none;stroke-opacity:1;fill-opacity:1"
       d="m -2.04,1.925 v -0.55 h -0.12 v 0.55 z"
       id="path143"
       sodipodi:nodetypes="ccccc" /><path
       style="fill:#cccccc;fill-rule:evenodd;stroke:none;stroke-width:0.0110596;stroke-miterlimit:4;stroke-dasharray:none;stroke-opacity:1;fill-opacity:1"
       d="m -2.64,1.925 v -0.55 h -0.12 v 0.55 z"
       id="path144"
       sodipodi:nodetypes="ccccc" /><path
       style="fill:#cccccc;fill-rule:evenodd;stroke:none;stroke-width:0.0133619;stroke-miterlimit:4;stroke-dasharray:none;stroke-opacity:1;fill-opacity:1"
       d="M 3.06,0.375 V -0.42782437 H 2.94 V 0.375 Z"
       id="path73"
       sodipodi:nodetypes="ccccc" /></g><path
     style="stroke:none;stroke-opacity:1;stroke-width:0.01;stroke-dasharray:none;fill:#cccccc;fill-rule:evenodd;stroke-miterlimit:4;fill-opacity:1"
     d="M -3.394013,-1.125 H -3.405846 -3.424908 -3.450243 -3.48058 -3.514398 -3.550001 -3.585604 -3.619422 -3.649759 -3.675094 -3.694156 -3.70599 -3.71 v 0.8 h 0.00401 0.011834 0.019062 0.025335 0.030337 0.033818 0.035603 0.035603 0.033818 0.030337 0.025335 0.019062 0.011833 0.00401 l 1.5e-6,-0.8 h 0.032498 z"
     id="path91"
     transform="matrix(1,0,0,-1,-1.2708333e-7,0.46498758)" /><path
     style="stroke:none;stroke-opacity:1;stroke-width:0.01;stroke-dasharray:none;fill:#cccccc;fill-rule:evenodd;stroke-miterlimit:4;fill-opacity:1"
     d="M 3.39,-0.325 H 3.39401 3.405843 3.424905 3.45024 3.480577 3.514395 3.55 3.5856033 3.6194214 3.6497584 3.675093 3.694155 3.7059885 3.71 v -0.8 H 3.7059885 3.694155 3.675093 3.6497584 3.6194214 3.5856033 3.55 3.5143967 3.4805786 3.4502416 3.424907 3.405845 3.3940115 3.39 3.3575 Z"
     id="path90"
     transform="matrix(1,0,0,-1,-1.2708333e-7,0.46498758)" /><path
     style="stroke:none;stroke-opacity:1;stroke-width:0.01;stroke-dasharray:none;fill:#444444;fill-rule:evenodd;stroke-miterlimit:4;fill-opacity:1"
     d="m 2.5,1.675 0.1,-0.1 v -0.2 h 0.2 v 0.2 l 0.1,0.1 h 1 v -2.45 H 3.75 v 1.15 h -7.5 v -1.15 H -3.9 v 2.45 h 1 l 0.1,-0.1 v -0.2 h 0.2 v 0.2 l 0.1,0.1 h 0.2 l 0.1,-0.1 v -0.2 H -2 v 0.2 l 0.1,0.1 h 0.2 l 0.1,-0.1 v -0.2 h 0.2 v 0.2 l 0.1,0.1 h 0.2 l 0.1,-0.1 v -0.2 h 0.2 v 0.2 l 0.1,0.1 h 0.2 l 0.1,-0.1 v -0.2 h 0.2 v 0.2 l 0.1,0.1 h 0.2 l 0.1,-0.1 v -0.2 h 0.2 v 0.2 l 0.1,0.1 h 0.2 l 0.1,-0.1 v -0.2 H 1 v 0.2 l 0.1,0.1 h 0.2 l 0.1,-0.1 v -0.2 h 0.2 v 0.2 l 0.1,0.1 H 1.9 L 2,1.575 v -0.2 h 0.2 v 0.2 l 0.1,0.1 z"
     id="path89"
     transform="matrix(1,0,0,-1,-1.2708333e-7,0.46498758)" /><path
     style="stroke:none;stroke-opacity:1;stroke-width:0.01;stroke-dasharray:none;fill:#444444;fill-rule:evenodd;stroke-miterlimit:4;fill-opacity:1"
     d="m 3.325,-1.675 h -6.65 v 0.15 1.25 H -3.6 v 0.15 h 0.53 v -0.4 h 0.14 v 0.4 h 0.16 v -0.4 h 0.14 v 0.4 h 0.16 v -0.4 h 0.14 v 0.4 h 0.16 v -0.4 h 0.14 v 0.4 h 0.16 v -0.4 h 0.14 v 0.4 h 0.16 v -0.4 h 0.14 v 0.4 h 0.16 v -0.4 h 0.14 v 0.4 h 0.16 v -0.4 h 0.14 v 0.4 h 0.16 v -0.4 h 0.14 v 0.4 h 0.16 v -0.4 h 0.14 v 0.4 h 0.16 v -0.4 h 0.14 v 0.4 h 0.16 v -0.4 h 0.14 v 0.4 h 0.16 v -0.4 h 0.14 v 0.4 h 0.16 v -0.4 h 0.14 v 0.4 h 0.16 v -0.4 h 0.14 v 0.4 h 0.16 v -0.4 h 0.14 v 0.4 h 0.16 v -0.4 h 0.14 v 0.4 h 0.16 v -0.4 h 0.14 v 0.4 h 0.16 v -0.4 h 0.14 v 0.4 h 0.16 v -0.4 h 0.14 v 0.4 h 0.16 v -0.4 h 0.14 v 0.4 H 3.6 v -0.15 H 3.325 Z"
     id="path84"
     sodipodi:nodetypes="cccccccccccccccccccccccccccccccccccccccccccccccccccccccccccccccccccccccccccccccccccccccccccccc"
     transform="matrix(1,0,0,-1,-1.2708333e-7,0.46498758)" /><rect
     id="origin"
     fill="#ff0000"
     width="1"
     height="1"
     x="0"
     y="0"
     style="display:none;font-variation-settings:normal;opacity:1;vector-effect:none;fill:#000000;fill-opacity:1;stroke:none;stroke-width:0.264583px;stroke-linecap:butt;stroke-linejoin:miter;stroke-miterlimit:4;stroke-dasharray:none;stroke-dashoffset:0;stroke-opacity:1;-inkscape-stroke:none;stop-color:#000000;stop-opacity:1" /></svg>
