<?xml version="1.0" encoding="UTF-8" standalone="no"?>
<svg
   version="1.1"
   width="10.37844mm"
   height="8.1915mm"
   viewBox="-5.842 -4.5085 10.37844 8.1915"
   id="svg103"
   sodipodi:docname="MK-12C02-G020_GSW.svg"
   inkscape:version="1.4 (e7c3feb1, 2024-10-09)"
   xmlns:inkscape="http://www.inkscape.org/namespaces/inkscape"
   xmlns:sodipodi="http://sodipodi.sourceforge.net/DTD/sodipodi-0.dtd"
   xmlns="http://www.w3.org/2000/svg"
   xmlns:svg="http://www.w3.org/2000/svg">
  <defs
     id="defs103" />
  <sodipodi:namedview
     id="namedview103"
     pagecolor="#505050"
     bordercolor="#eeeeee"
     borderopacity="1"
     inkscape:showpageshadow="0"
     inkscape:pageopacity="0"
     inkscape:pagecheckerboard="0"
     inkscape:deskcolor="#505050"
     inkscape:document-units="mm"
     inkscape:zoom="9.293142"
     inkscape:cx="16.463754"
     inkscape:cy="12.105701"
     inkscape:window-width="1312"
     inkscape:window-height="794"
     inkscape:window-x="0"
     inkscape:window-y="38"
     inkscape:window-maximized="0"
     inkscape:current-layer="svg103" />
  <title
     id="title1">Picture generated by PcbDraw </title>
  <desc
     id="desc1">Picture generated by PcbDraw</desc>
  <rect
     style="fill:#d0c9c9;stroke:none;stroke-width:0.0799999;stroke-linejoin:round;fill-opacity:1"
     id="rect103"
     width="6.5999999"
     height="2.7"
     x="-3.3"
     y="-1.3462" />
  <path
     d="m -2.4265,-1.359 v -0.965 h 0.365 v 0.965 z"
     id="leads"
     style="fill:#d6dcdb;stroke:#99abb0;stroke-width:0.035;stroke-linecap:round;stroke-miterlimit:4;stroke-dasharray:none"
     sodipodi:nodetypes="ccccc" />
  <path
     d="m 0.5625,-1.359 v -0.965 h 0.365 v 0.965 z"
     id="path104"
     style="fill:#d6dcdb;stroke:#99abb0;stroke-width:0.035;stroke-linecap:round;stroke-miterlimit:4;stroke-dasharray:none"
     sodipodi:nodetypes="ccccc" />
  <path
     d="m 2.0615,-1.359 v -0.965 h 0.365 v 0.965 z"
     id="path105"
     style="fill:#d6dcdb;stroke:#99abb0;stroke-width:0.035;stroke-linecap:round;stroke-miterlimit:4;stroke-dasharray:none"
     sodipodi:nodetypes="ccccc" />
  <path
     d="m 3.3175,-1.311 h 0.515 v 0.36500003 h -0.515 z"
     id="path106"
     style="fill:#d6dcdb;stroke:#99abb0;stroke-width:0.035;stroke-linecap:round;stroke-miterlimit:4;stroke-dasharray:none"
     sodipodi:nodetypes="ccccc" />
  <path
     d="m 3.3175,0.946 h 0.515 v 0.365 h -0.515 z"
     id="path107"
     style="fill:#d6dcdb;stroke:#99abb0;stroke-width:0.035;stroke-linecap:round;stroke-miterlimit:4;stroke-dasharray:none"
     sodipodi:nodetypes="ccccc" />
  <path
     d="m -3.8325,-1.311 h 0.515 v 0.36500003 h -0.515 z"
     id="path108"
     style="fill:#d6dcdb;stroke:#99abb0;stroke-width:0.035;stroke-linecap:round;stroke-miterlimit:4;stroke-dasharray:none"
     sodipodi:nodetypes="ccccc" />
  <path
     d="m -3.8325,0.946 h 0.515 v 0.365 h -0.515 z"
     id="path109"
     style="fill:#d6dcdb;stroke:#99abb0;stroke-width:0.035;stroke-linecap:round;stroke-miterlimit:4;stroke-dasharray:none"
     sodipodi:nodetypes="ccccc" />
  <path
     id="rect109"
     style="fill:#444444;fill-opacity:1;stroke:none;stroke-width:0.0799999;stroke-linejoin:round"
     d="M -1.3967933 1.3464398 L -1.3967933 3.1029217 L -1.1471961 3.3530356 L -0.35137907 3.3530356 L -0.1017819 3.1029217 L -0.1017819 1.3464398 L -1.3967933 1.3464398 z " />
  <path
     id="rect111"
     style="fill:#444444;fill-opacity:1;stroke:none;stroke-width:0.0799999;stroke-linejoin:round"
     d="M 2.9595299 0.81365576 A 0.2 0.2 0 0 0 2.7595422 1.0136436 L 2.7595422 1.3536745 L 3.3000776 1.3536745 L 3.3000776 0.81365576 L 2.9693485 0.81365576 A 0.2 0.2 0 0 0 2.9595299 0.81365576 z " />
  <path
     id="path112"
     style="fill:#444444;fill-opacity:1;stroke:none;stroke-width:0.0799999;stroke-linejoin:round"
     d="M -2.7599813,1.0132524 A 0.2,0.2 0 0 0 -2.9599691,0.81326466 H -3.3 V 1.3538001 h 0.5400187 V 1.023071 a 0.2,0.2 0 0 0 0,-0.00982 z" />
  <path
     id="path113"
     style="fill:#444444;fill-opacity:1;stroke:none;stroke-width:0.0799999;stroke-linejoin:round"
     d="M -2.9594523,-0.80618129 A 0.2,0.2 0 0 0 -2.7594646,-1.0061691 V -1.3462 H -3.3 v 0.54001871 h 0.3307291 a 0.2,0.2 0 0 0 0.00982,0 z" />
  <path
     id="path114"
     style="fill:#444444;fill-opacity:1;stroke:none;stroke-width:0.0799999;stroke-linejoin:round"
     d="m 2.7599813,-1.0056523 a 0.2,0.2 0 0 0 0.1999878,0.19998772 H 3.3 V -1.3462 H 2.7599813 v 0.3307291 a 0.2,0.2 0 0 0 0,0.00982 z" />
  <rect
     id="origin"
     fill="#ff0000"
     width="1"
     height="1"
     x="0"
     y="0"
     style="display:inline" />
</svg>
