<?xml version="1.0" encoding="UTF-8" standalone="no"?>
<svg
   version="1.1"
   width="19.564mm"
   height="23.75mm"
   viewBox="-10.054 -11.875 19.564 23.75"
   id="svg43"
   sodipodi:docname="XCVR_MS88SF2.svg"
   xml:space="preserve"
   inkscape:version="1.4 (e7c3feb1, 2024-10-09)"
   xmlns:inkscape="http://www.inkscape.org/namespaces/inkscape"
   xmlns:sodipodi="http://sodipodi.sourceforge.net/DTD/sodipodi-0.dtd"
   xmlns="http://www.w3.org/2000/svg"
   xmlns:svg="http://www.w3.org/2000/svg"><defs
     id="defs43"><marker
       id="DistanceX"
       orient="auto"
       refX="0.0"
       refY="0.0"
       style="overflow:visible"><path
         d="M 3,-3 L -3,3 M 0,-5 L  0,5"
         style="stroke:#000000; stroke-width:0.5"
         id="path1-4" /></marker><pattern
       id="Hatch"
       patternUnits="userSpaceOnUse"
       width="8"
       height="8"
       x="0"
       y="0"><path
         d="M8 4 l-4,4"
         stroke="#000000"
         stroke-width="0.25"
         linecap="square"
         id="path2-3" /><path
         d="M6 2 l-4,4"
         stroke="#000000"
         stroke-width="0.25"
         linecap="square"
         id="path3-9" /><path
         d="M4 0 l-4,4"
         stroke="#000000"
         stroke-width="0.25"
         linecap="square"
         id="path4-5" /></pattern><symbol
       id="*MODEL_SPACE" /><symbol
       id="*PAPER_SPACE" /></defs><sodipodi:namedview
     id="namedview43"
     pagecolor="#505050"
     bordercolor="#eeeeee"
     borderopacity="1"
     inkscape:showpageshadow="0"
     inkscape:pageopacity="0"
     inkscape:pagecheckerboard="0"
     inkscape:deskcolor="#505050"
     inkscape:document-units="mm"
     inkscape:zoom="5.246378"
     inkscape:cx="30.878446"
     inkscape:cy="48.890873"
     inkscape:window-width="1104"
     inkscape:window-height="862"
     inkscape:window-x="0"
     inkscape:window-y="38"
     inkscape:window-maximized="0"
     inkscape:current-layer="svg43" /><title
     id="title1">Picture generated by PcbDraw </title><desc
     id="desc1">Picture generated by PcbDraw</desc><rect
     id="origin"
     fill="red"
     width="1.0"
     height="1.0"
     x="0"
     y="0" /><g
     id="g45"
     transform="translate(0,0.20501)"><path
       d="m -8.6978155,10.332344 -1.849e-4,1.062646 H 8.7 v -1.062011 a 0.2499995,0.2499995 0 0 1 0,-0.4999834 V 9.2369952 a 0.2499995,0.2499995 0 0 1 0,-0.4999831 V 8.1409852 a 0.2499995,0.2499995 0 0 1 0,-0.4999831 V 7.0450017 a 0.2499995,0.2499995 0 0 1 0,-0.4999831 V 5.9489917 a 0.2499995,0.2499995 0 0 1 0,-0.4999831 V 4.8530082 a 0.2499995,0.2499995 0 0 1 0,-0.4999831 V 3.7569982 a 0.2499995,0.2499995 0 0 1 0,-0.4999831 V 2.6610147 a 0.2499995,0.2499995 0 0 1 0,-0.4999831 V 1.5650047 a 0.2499995,0.2499995 0 0 1 0,-0.4999831 V 0.46902117 a 0.2499995,0.2499995 0 0 1 0,-0.49998312 v -0.59602687 a 0.2499995,0.2499995 0 0 1 0,-0.49998308 v -0.5960004 a 0.2499995,0.2499995 0 0 1 0,-0.4999832 v -0.5960268 a 0.2499995,0.2499995 0 0 1 0,-0.4999831 v -0.5960005 a 0.2499995,0.2499995 0 0 1 0,-0.4999831 V -11.6 H -8.6940004 l -0.00125,7.1865591 a 0.2499995,0.2499995 0 0 1 -8.62e-5,0.496914 l -1.043e-4,0.5990431 a 0.2499995,0.2499995 0 0 1 -8.65e-5,0.4969669 l -1.043e-4,0.5990166 a 0.2499995,0.2499995 0 0 1 -8.65e-5,0.4969934 l -1.04e-4,0.5989902 a 0.2499995,0.2499995 0 0 1 -8.65e-5,0.49704622 l -1.042e-4,0.59893728 a 0.2499995,0.2499995 0 0 1 -8.65e-5,0.4970727 l -1.04e-4,0.5989108 a 0.2499995,0.2499995 0 0 1 -8.65e-5,0.4971256 l -1.045e-4,0.6010805 a 0.2499995,0.2499995 0 0 1 -8.58e-5,0.492707 l -1.047e-4,0.6012657 a 0.2499995,0.2499995 0 0 1 -8.63e-5,0.4967552 l -1.042e-4,0.5983552 a 0.2499995,0.2499995 0 0 1 -8.66e-5,0.4985279 l -1.039e-4,0.5974556 a 0.2499995,0.2499995 0 0 1 -8.68e-5,0.4985544 l -1.04e-4,0.5974291 a 0.2499995,0.2499995 0 0 1 -8.68e-5,0.4985808 L -8.6973474,7.64169 a 0.2499995,0.2499995 0 0 1 -8.68e-5,0.4986073 l -1.04e-4,0.5973763 a 0.2499995,0.2499995 0 0 1 -8.68e-5,0.4986602 l -1.039e-4,0.5973233 a 0.2499995,0.2499995 0 0 1 -8.66e-5,0.4986869 z"
       style="fill:#141414;fill-opacity:1;stroke:none;stroke-width:0.264583;stroke-opacity:1"
       id="path5-1" /><path
       d="m -6.5873009,-6.3379406 h 0.9000011 l -8e-7,-4.5100084 h 1.399999 l 8e-7,4.5100084 h 0.499999 l -8e-7,-4.5100084 h 1.6 l 2e-7,2.6400128 h 3.10000121 l -5.2e-7,-2.6400128 H 2.6126972 l 6e-7,2.6400128 h 3.0000019 l -6e-7,-2.6400128 h 1.699999 l 0.00185,3.9010169 h 0.496888 l 0.00127,-4.3997559 H 5.1127084 l 5e-7,2.6400122 h -2.000001 l -5e-7,-2.6400122 H 0.41270749 l 2.7e-7,2.6400122 H -1.5872932 l -3e-7,-2.6400122 h -5 z"
       style="fill:#3b3d3d;fill-opacity:1;stroke:none;stroke-width:0.264583;stroke-opacity:1"
       id="path6-7" /><path
       d="M -5.1470056,10.279983 H 4.9529942 V 9.9393846 h 0.8 1.23 l -1.3e-6,-15.2194152 h -3.487398 v 0.3386402 h -0.8 -1.303198 -0.80000002 V -5.2800306 H -7.1770069 l 1.3e-6,15.2194152 h 1.2299998 0.8000002 z"
       style="fill:#cccccc;fill-opacity:1;stroke:none;stroke-width:0.264583;stroke-opacity:1"
       id="path7-4" /><path
       d="m -6.397007,-4.0000294 a 0.50000005,0.50000005 0 0 0 1.0000001,0 0.50000005,0.50000005 0 0 0 -1.0000001,0 z"
       style="fill:#141414;fill-opacity:1;stroke:none;stroke-width:0.264583;stroke-opacity:1"
       id="path8-5" /><rect
       style="fill:#9c9c9c;fill-opacity:1;stroke:none;stroke-width:0.08;stroke-linejoin:round;stroke-opacity:1"
       id="rect43"
       width="1.25"
       height="1"
       x="1.4189959"
       y="-5.9413905" /><rect
       style="fill:#9c9c9c;fill-opacity:1;stroke:none;stroke-width:0.08;stroke-linejoin:round;stroke-opacity:1"
       id="rect44"
       width="1.25"
       height="1"
       x="-6.987"
       y="9.9393845" /><rect
       style="fill:#9c9c9c;fill-opacity:1;stroke:none;stroke-width:0.08;stroke-linejoin:round;stroke-opacity:1"
       id="rect45"
       width="1.25"
       height="1"
       x="5.5430002"
       y="9.9393845" /></g></svg>
