<?xml version="1.0" encoding="UTF-8" standalone="no"?>
<svg
   version="1.1"
   width="3.32mm"
   height="2.55mm"
   viewBox="-1.66 -1.275 3.32 2.55"
   id="svg48"
   sodipodi:docname="LED_WS2812B-2020_PLCC4_2.0x2.0mm.svg"
   inkscape:version="1.4 (e7c3feb1, 2024-10-09)"
   xmlns:inkscape="http://www.inkscape.org/namespaces/inkscape"
   xmlns:sodipodi="http://sodipodi.sourceforge.net/DTD/sodipodi-0.dtd"
   xmlns="http://www.w3.org/2000/svg"
   xmlns:svg="http://www.w3.org/2000/svg">
  <defs
     id="defs48" />
  <sodipodi:namedview
     id="namedview48"
     pagecolor="#505050"
     bordercolor="#eeeeee"
     borderopacity="1"
     inkscape:showpageshadow="0"
     inkscape:pageopacity="0"
     inkscape:pagecheckerboard="0"
     inkscape:deskcolor="#505050"
     inkscape:document-units="mm"
     inkscape:zoom="24.348546"
     inkscape:cx="4.5998639"
     inkscape:cy="4.2096969"
     inkscape:window-width="1368"
     inkscape:window-height="772"
     inkscape:window-x="0"
     inkscape:window-y="38"
     inkscape:window-maximized="0"
     inkscape:current-layer="svg48" />
  <title
     id="title1">Picture generated by PcbDraw </title>
  <desc
     id="desc1">Picture generated by PcbDraw</desc>
  <path
     id="rect48"
     style="fill:#f0f0f0;stroke:none;stroke-width:0.2;stroke-linejoin:round;fill-opacity:1"
     d="M -1.000092 -1.0000814 L -1.000092 -0.69984131 A 0.15000001 0.15000001 0 0 1 -0.85023031 -0.54997965 A 0.15000001 0.15000001 0 0 1 -1.000092 -0.400118 L -1.000092 0.39983317 A 0.15000001 0.15000001 0 0 1 -0.85023031 0.55021159 A 0.15000001 0.15000001 0 0 1 -1.000092 0.70007324 L -1.000092 0.99979655 L 0.99978597 0.99979655 L 0.99978597 0.70007324 A 0.15000001 0.15000001 0 0 1 0.84992432 0.55021159 A 0.15000001 0.15000001 0 0 1 0.99978597 0.39983317 L 0.99978597 -0.400118 A 0.15000001 0.15000001 0 0 1 0.84992432 -0.54997965 A 0.15000001 0.15000001 0 0 1 0.99978597 -0.69984131 L 0.99978597 -1.0000814 L -1.000092 -1.0000814 z " />
  <path
     id="path51"
     style="fill:#b3b3b3;stroke:none;stroke-width:0.2;stroke-linejoin:round"
     d="M -1.000092 -0.80009359 L -1.000092 -0.69984131 A 0.15000001 0.15000001 0 0 1 -0.85023031 -0.54997965 A 0.15000001 0.15000001 0 0 1 -1.000092 -0.400118 L -1.000092 -0.29986572 A 0.25 0.25 0 0 0 -0.74997803 -0.54997965 A 0.25 0.25 0 0 0 -1.000092 -0.80009359 z " />
  <rect
     style="fill:#ffffff;fill-opacity:1;stroke:none;stroke-width:0.2;stroke-linejoin:round"
     id="rect52"
     width="1.5"
     height="2.0000813"
     x="-0.75000006"
     y="-1" />
  <path
     id="path52"
     style="fill:#b3b3b3;stroke:none;stroke-width:0.2;stroke-linejoin:round"
     d="M -1.000092,0.30009765 V 0.40034993 A 0.15000001,0.15000001 0 0 1 -0.85023031,0.55021159 0.15000001,0.15000001 0 0 1 -1.000092,0.70007324 V 0.80032552 A 0.25,0.25 0 0 0 -0.74997803,0.55021159 0.25,0.25 0 0 0 -1.000092,0.30009765 Z" />
  <path
     id="path53"
     style="fill:#b3b3b3;stroke:none;stroke-width:0.2;stroke-linejoin:round"
     d="m 0.99978601,-0.80009359 v 0.10025228 A 0.15000001,0.15000001 0 0 0 0.84992432,-0.54997965 0.15000001,0.15000001 0 0 0 0.99978601,-0.400118 v 0.10025228 A 0.25,0.25 0 0 1 0.74967204,-0.54997965 0.25,0.25 0 0 1 0.99978601,-0.80009359 Z" />
  <path
     id="path54"
     style="fill:#b3b3b3;stroke:none;stroke-width:0.2;stroke-linejoin:round"
     d="M 0.99978601,0.30009765 V 0.40034993 A 0.15000001,0.15000001 0 0 0 0.84992432,0.55021159 0.15000001,0.15000001 0 0 0 0.99978601,0.70007324 V 0.80032552 A 0.25,0.25 0 0 1 0.74967204,0.55021159 0.25,0.25 0 0 1 0.99978601,0.30009765 Z" />
  <rect
     style="opacity:0.95;fill:#141414;fill-opacity:1;stroke:none;stroke-width:1.07704;stroke-linejoin:bevel;stroke-dasharray:none;stroke-opacity:1"
     width="0.50829989"
     height="0.92262006"
     x="-0.65414989"
     y="-0.42232004"
     id="rect5"
     transform="rotate(-90)" />
  <rect
     style="opacity:0.95;fill:#ae8c75;fill-opacity:1;stroke:none;stroke-width:1.07704;stroke-linejoin:bevel;stroke-dasharray:none;stroke-opacity:1"
     width="0.26189998"
     height="0.29464003"
     x="0.18810003"
     y="-0.34464005"
     id="rect54"
     transform="rotate(-90)" />
  <rect
     id="origin"
     fill="#ff0000"
     width="1"
     height="1"
     x="0"
     y="0" />
</svg>
