<?xml version="1.0" encoding="UTF-8" standalone="no"?>
<svg
   version="1.1"
   width="8.29mm"
   height="8.29mm"
   viewBox="-4.145 -4.145 8.29 8.29"
   id="svg108"
   sodipodi:docname="RP2040-QFN-56.svg"
   xml:space="preserve"
   inkscape:version="1.4 (e7c3feb1, 2024-10-09)"
   xmlns:inkscape="http://www.inkscape.org/namespaces/inkscape"
   xmlns:sodipodi="http://sodipodi.sourceforge.net/DTD/sodipodi-0.dtd"
   xmlns="http://www.w3.org/2000/svg"
   xmlns:svg="http://www.w3.org/2000/svg"><defs
     id="defs108" /><sodipodi:namedview
     id="namedview108"
     pagecolor="#505050"
     bordercolor="#eeeeee"
     borderopacity="1"
     inkscape:showpageshadow="0"
     inkscape:pageopacity="0"
     inkscape:pagecheckerboard="0"
     inkscape:deskcolor="#505050"
     inkscape:document-units="mm"
     inkscape:zoom="5.0299663"
     inkscape:cx="36.381954"
     inkscape:cy="-12.723743"
     inkscape:window-width="1400"
     inkscape:window-height="637"
     inkscape:window-x="0"
     inkscape:window-y="38"
     inkscape:window-maximized="0"
     inkscape:current-layer="svg108" /><title
     id="title1">Picture generated by PcbDraw </title><desc
     id="desc1">Picture generated by PcbDraw</desc><g
     id="g986"
     transform="matrix(1.1428572,0,0,1.1428572,-4.2452084,-4.2452086)"
     style="fill:#666666;stroke:#666666"><rect
       style="opacity:0.95;fill:#141414;fill-opacity:1;stroke:none;stroke-width:3.5;stroke-linejoin:bevel;stroke-dasharray:none;stroke-opacity:1"
       width="6.1249995"
       height="6.1249995"
       x="0.65205735"
       y="0.65205759"
       id="rect5" /><circle
       style="fill:#e6e6e6;fill-rule:evenodd;stroke:#cccccc;stroke-width:0.00905391;stroke-linejoin:round;stroke-miterlimit:4;stroke-dasharray:none"
       id="path856"
       cx="1.3253123"
       cy="1.3253125"
       r="0.28956139" /></g><path
     d="m 1.3650389,-1.2304948 -0.029972,-0.052653 C 1.3358767,-1.6590179 1.161712,-1.81212 0.95838607,-1.9287696 c 0.061565,-0.016201 0.12475023,-0.029162 0.14257183,-0.1069286 0.1061184,-0.026732 0.1279902,-0.076146 0.1385205,-0.1279902 0.027543,-0.018631 0.1198897,-0.070475 0.1101686,-0.1595821 0.051844,-0.035643 0.081006,-0.081817 0.065616,-0.1466221 0.055895,-0.060755 0.070476,-0.1109789 0.046984,-0.1571524 0.067235,-0.083437 0.037263,-0.1263707 0.00891,-0.1693031 0.050224,-0.090728 0.00567,-0.1879351 -0.1344712,-0.171734 -0.055894,-0.081817 -0.1774037,-0.063185 -0.1960356,-0.063185 -0.021062,-0.025922 -0.048603,-0.048604 -0.13366,-0.038073 -0.055084,-0.049415 -0.11664973,-0.040504 -0.18064483,-0.017011 -0.075336,-0.059136 -0.1255594,-0.011342 -0.1830745,0.00648 -0.091537,-0.029162 -0.1125984,0.010531 -0.1571524,0.027543 -0.099638,-0.021062 -0.1304199,0.024302 -0.1782139,0.072096 l -0.055895,-8.103e-4 C 0.10133767,-2.8935554 0.02681227,-2.7153409 7.9868782e-5,-2.6238042 -0.02665313,-2.7153412 -0.10117793,-2.8935559 -0.25185033,-2.9810424 l -0.055894,8.103e-4 c -0.047794,-0.047794 -0.078576,-0.093157 -0.178214,-0.072096 -0.045363,-0.016202 -0.065616,-0.056705 -0.1571524,-0.027543 -0.037263,-0.011341 -0.072096,-0.035642 -0.1125994,-0.034833 -0.021062,8.103e-4 -0.044553,0.0081 -0.070475,0.028353 -0.063995,-0.024303 -0.1255604,-0.032403 -0.18064467,0.017011 -0.085057,-0.010531 -0.1134086,0.011341 -0.13366,0.038073 -0.018632,0 -0.1401421,-0.018632 -0.1960356,0.063185 -0.140142,-0.016201 -0.1838847,0.081006 -0.133661,0.171734 -0.028352,0.043743 -0.058324,0.086676 0.00891,0.1693031 -0.023492,0.046174 -0.00891,0.096397 0.046984,0.1571524 -0.014582,0.064805 0.014581,0.1109789 0.065615,0.1466221 -0.00972,0.089107 0.082627,0.1409502 0.1101696,0.1595821 0.01053,0.051844 0.032402,0.1004485 0.1385205,0.1279902 0.017822,0.076956 0.081006,0.090727 0.14257177,0.1069286 -0.20332687,0.1166496 -0.37749057,0.2697517 -0.37668027,0.6456218 l -0.029972,0.052653 c -0.2332983,0.1393307 -0.4431052,0.588917 -0.1150292,0.9534455 0.021062,0.1142199 0.057515,0.1960356 0.089107,0.28676305 0.047794,0.36614901 0.3604793,0.5370727 0.44229487,0.55732406 0.1207,0.0907275 0.2495004,0.17659448 0.4228539,0.23653932 0.164443,0.16687342 0.342657,0.23005827 0.520871,0.23005827 h 0.0081 c 0.1790243,0 0.356428,-0.0631848 0.5200614,-0.23005827 0.1741637,-0.0599448 0.3021539,-0.14581181 0.4228538,-0.23653828 C 1.029671,0.54678645 1.341546,0.37586276 1.38934,0.00971375 1.420933,-0.08101265 1.457385,-0.1628294 1.478447,-0.2770483 1.8073333,-0.6423881 1.5975264,-1.091163 1.3650389,-1.2304948 Z m -0.1798345,-0.064805 c -0.012151,0.1514826 -0.80115373,-0.5273516 -0.66506303,-0.5500337 0.3701993,-0.060754 0.67721383,0.1555328 0.66506303,0.5500337 z m -0.34832753,0.7541699 c -0.1984663,0.1279902 -0.4844192,0.045364 -0.6383315,-0.184694 -0.1539124,-0.23005821 -0.1182692,-0.5200613 0.080197,-0.6480515 0.1984653,-0.1279902 0.4844182,-0.045364 0.6383305,0.184694 0.15391243,0.23005819 0.11826923,0.5200613 -0.080196,0.6480515 z m -0.5500338,-2.3354156 c 0.00648,0.034023 0.014581,0.055084 0.023491,0.061565 0.043744,-0.046984 0.079387,-0.094778 0.1360907,-0.140141 0,0.026732 -0.01377,0.055084 0.020252,0.076146 0.029972,-0.040504 0.071285,-0.076956 0.1255595,-0.1077389 -0.025922,0.045364 -0.00486,0.059135 0.00972,0.077767 0.041313,-0.035643 0.081006,-0.071285 0.1571524,-0.099638 -0.021062,0.025113 -0.050224,0.050225 -0.019442,0.079387 0.042933,-0.026732 0.085867,-0.053465 0.1871258,-0.072096 -0.022682,0.025112 -0.070476,0.051034 -0.041314,0.076146 0.053465,-0.020251 0.1134096,-0.035643 0.17902423,-0.043744 -0.031592,0.025922 -0.057514,0.051034 -0.031592,0.071285 0.057514,-0.017821 0.136901,-0.041313 0.2138562,-0.021062 l -0.048603,0.049415 c -0.00567,0.00648 0.1142189,0.00486 0.1936048,0.00648 -0.029162,0.040504 -0.058324,0.078577 -0.075336,0.1474323 0.0081,0.0081 0.046984,0.00324 0.084246,0 -0.038073,0.080196 -0.1036876,0.099637 -0.1190794,0.1344702 0.023492,0.017822 0.055084,0.012961 0.090728,8.103e-4 -0.027543,0.055895 -0.084246,0.094778 -0.1296108,0.140141 0.011342,0.0081 0.031593,0.012961 0.078577,0.00729 -0.042123,0.044554 -0.092347,0.085057 -0.1522918,0.1215102 0.01053,0.012151 0.046984,0.012151 0.081006,0.012961 -0.054275,0.052654 -0.1239399,0.080196 -0.1895555,0.1150292 0.032403,0.021872 0.055895,0.017011 0.081006,0.017011 -0.046174,0.038073 -0.1247503,0.057514 -0.19765523,0.081006 0.01377,0.021872 0.027542,0.027542 0.057514,0.033212 -0.076956,0.042934 -0.18793516,0.023492 -0.21871786,0.045363 0.00729,0.021872 0.029163,0.035643 0.054275,0.046984 -0.1247502,0.00729 -0.4641668,-0.00486 -0.5297824,-0.2616502 0.1271799,-0.140141 0.359669,-0.3037744 0.75903056,-0.5071003 -0.31106486,0.1036886 -0.59134686,0.2430194 -0.82626566,0.4333842 -0.2778523,-0.1288005 -0.087487,-0.4528263 0.046984,-0.5816257 z m -0.2786625,0.9283347 c 0.1960356,-0.00243 0.4382446,0.1441913 0.4374354,0.2810923 -8.102e-4,0.1215091 -0.1701144,0.2195269 -0.4358149,0.2179074 -0.2600307,-0.00324 -0.4350046,-0.1231307 -0.4341944,-0.2413998 0,-0.096397 0.2122367,-0.2632707 0.4325739,-0.2575999 z m -0.996379,-0.1036886 c 0.029972,-0.00567 0.043744,-0.012151 0.057514,-0.033212 -0.072905,-0.022682 -0.15148157,-0.042934 -0.19765507,-0.081006 0.025112,0 0.048603,0.00567 0.081006,-0.017011 -0.065616,-0.034833 -0.1352805,-0.062376 -0.1895556,-0.1150292 0.034023,-8.102e-4 0.070476,0 0.081006,-0.012961 -0.059945,-0.036454 -0.1101686,-0.076956 -0.1522918,-0.1215102 0.046984,0.00567 0.067235,8.102e-4 0.078577,-0.00729 -0.045364,-0.045364 -0.1028783,-0.084246 -0.1296107,-0.140141 0.034833,0.012151 0.067235,0.016201 0.090727,-8.103e-4 -0.015392,-0.034023 -0.081006,-0.054274 -0.1190794,-0.1344712 0.037263,0.00324 0.076146,0.0081 0.084246,0 -0.017011,-0.068855 -0.046984,-0.1077378 -0.075336,-0.1474313 0.079386,-8.103e-4 0.1992756,0 0.1936048,-0.00648 l -0.048603,-0.049415 c 0.076955,-0.020251 0.1563421,0.00324 0.2138562,0.021062 0.025922,-0.020251 -8.092e-4,-0.045363 -0.031592,-0.071285 0.065615,0.00891 0.12474907,0.023491 0.17902417,0.043744 0.028352,-0.025112 -0.018632,-0.051034 -0.041314,-0.076146 0.1012589,0.018631 0.1441923,0.045363 0.1871258,0.072096 0.030782,-0.029163 0.00162,-0.054275 -0.019442,-0.079387 0.076146,0.027543 0.1158394,0.063995 0.1571524,0.099638 0.013771,-0.018632 0.035643,-0.032403 0.00972,-0.077767 0.054274,0.030783 0.095588,0.067235 0.1255594,0.1077389 0.033214,-0.021062 0.020252,-0.050224 0.020252,-0.076146 0.056704,0.045363 0.092347,0.093157 0.1360908,0.140141 0.00891,-0.00648 0.016201,-0.027543 0.023491,-0.061565 0.1344713,0.1288005 0.3248361,0.4528263 0.048604,0.5816268 -0.2349188,-0.1903659 -0.5152008,-0.3296966 -0.82626547,-0.4333852 0.39936137,0.2025166 0.63184937,0.3669593 0.75903037,0.5071003 -0.064805,0.2576009 -0.4050322,0.2689415 -0.5297824,0.2616512 0.025112,-0.011341 0.046984,-0.025922 0.054274,-0.046984 -0.032402,-0.022682 -0.1425707,-0.00324 -0.2203372,-0.045363 z m 0.486849,0.1952253 c 0.1360907,0.022682 -0.65291207,0.7007061 -0.66506287,0.5500338 -0.012151,-0.3945009 0.29567277,-0.6115981 0.66506287,-0.5500338 z m -0.83760717,1.5132003 c -0.1919853,-0.1522918 -0.2535496,-0.59701751 0.1020681,-0.7962931 0.2146674,-0.056705 0.072906,0.8732493 -0.1020681,0.7962931 z m 0.73715857,0.79548287 c -0.1077378,0.0639951 -0.3710096,0.038074 -0.55732407,-0.22600799 -0.1255594,-0.22195668 -0.1093583,-0.44715548 -0.021062,-0.51358028 0.1320405,-0.079386 0.33617657,0.027542 0.49332897,0.2073761 0.136901,0.16201289 0.1992756,0.44796572 0.0850571,0.53221217 z m -0.2138572,-0.96964697 c -0.19846527,-0.1279902 -0.23410847,-0.41799331 -0.080196,-0.6480515 0.1539124,-0.2300583 0.4398652,-0.3126853 0.6383305,-0.1846951 0.1984653,0.1279902 0.2341096,0.41799329 0.080197,0.6480516 -0.1547226,0.2300583 -0.4406754,0.3126852 -0.6383315,0.184695 z m 0.8278861,1.42166256 c -0.2381588,0.009721 -0.4714571,-0.19198531 -0.4682171,-0.26165016 -0.00324,-0.10287832 0.2900031,-0.18307451 0.4803679,-0.17821397 0.1919853,-0.008101 0.4503965,0.0607541 0.4512057,0.15310208 0.00405,0.089107 -0.2332983,0.29081336 -0.4633565,0.28676205 z m 0.4771278,-1.01176976 c 0.00162,0.24058852 -0.2122366,0.43581488 -0.4763176,0.43743436 -0.2640809,0.001621 -0.4795586,-0.19279557 -0.4811781,-0.43257386 v -0.00486 c -0.00162,-0.2405896 0.2122366,-0.4358149 0.4763176,-0.4374354 0.2640809,-0.00162 0.4795587,0.1927955 0.4811781,0.4325749 z M 1.155232,0.23815253 C 0.95028547,0.51843456 0.67243317,0.52896589 0.56955487,0.45119945 0.46181707,0.35075088 0.54363387,0.03887591 0.69187537,-0.1320467 0.86117847,-0.320792 1.0426326,-0.4439217 1.1690033,-0.3475244 1.2540603,-0.2640874 1.3042838,0.05021749 1.155232,0.23815253 Z M 1.3407372,-0.3548147 c -0.1741647,0.076146 -0.3159252,-0.852998 -0.1020691,-0.7962931 0.3556188,0.20008579 0.2940534,0.6448105 0.1020691,0.7962931 z"
     fill="#000000"
     stroke-width="0.0103981"
     id="path1-1"
     style="fill:#cccccc;fill-opacity:1" /><g
     id="g133"><rect
       style="fill:#e6e6e6;fill-rule:evenodd;stroke:#cccccc;stroke-width:0.0246388;stroke-linejoin:round;stroke-miterlimit:4;stroke-dasharray:none"
       id="rect832-9-1"
       width="0.13411112"
       height="0.12088203"
       x="-2.6676805"
       y="3.4623194"
       transform="rotate(90)" /><rect
       style="fill:#e6e6e6;fill-rule:evenodd;stroke:#cccccc;stroke-width:0.0246388;stroke-linejoin:round;stroke-miterlimit:4;stroke-dasharray:none"
       id="rect832-6-3-9"
       width="0.13411112"
       height="0.12088203"
       x="-2.2676806"
       y="3.4623194"
       transform="rotate(90)" /><rect
       style="fill:#e6e6e6;fill-rule:evenodd;stroke:#cccccc;stroke-width:0.0246388;stroke-linejoin:round;stroke-miterlimit:4;stroke-dasharray:none"
       id="rect832-7-6-4"
       width="0.13411112"
       height="0.12088203"
       x="-1.8676805"
       y="3.4623194"
       transform="rotate(90)" /><rect
       style="fill:#e6e6e6;fill-rule:evenodd;stroke:#cccccc;stroke-width:0.0246388;stroke-linejoin:round;stroke-miterlimit:4;stroke-dasharray:none"
       id="rect832-6-5-06-7"
       width="0.13411112"
       height="0.12088203"
       x="-1.4676806"
       y="3.4623194"
       transform="rotate(90)" /><rect
       style="fill:#e6e6e6;fill-rule:evenodd;stroke:#cccccc;stroke-width:0.0246388;stroke-linejoin:round;stroke-miterlimit:4;stroke-dasharray:none"
       id="rect109"
       width="0.13411112"
       height="0.12088203"
       x="-1.0676806"
       y="3.4627986"
       transform="rotate(90)" /><rect
       style="fill:#e6e6e6;fill-rule:evenodd;stroke:#cccccc;stroke-width:0.0246388;stroke-linejoin:round;stroke-miterlimit:4;stroke-dasharray:none"
       id="rect110"
       width="0.13411112"
       height="0.12088203"
       x="-0.66768074"
       y="3.4627986"
       transform="rotate(90)" /><rect
       style="fill:#e6e6e6;fill-rule:evenodd;stroke:#cccccc;stroke-width:0.0246388;stroke-linejoin:round;stroke-miterlimit:4;stroke-dasharray:none"
       id="rect111"
       width="0.13411112"
       height="0.12088203"
       x="-0.26768064"
       y="3.4627986"
       transform="rotate(90)" /><rect
       style="fill:#e6e6e6;fill-rule:evenodd;stroke:#cccccc;stroke-width:0.0246388;stroke-linejoin:round;stroke-miterlimit:4;stroke-dasharray:none"
       id="rect112"
       width="0.13411112"
       height="0.12088203"
       x="0.13231933"
       y="3.4627986"
       transform="rotate(90)" /><rect
       style="fill:#e6e6e6;fill-rule:evenodd;stroke:#cccccc;stroke-width:0.0246388;stroke-linejoin:round;stroke-miterlimit:4;stroke-dasharray:none"
       id="rect113"
       width="0.13411112"
       height="0.12088203"
       x="0.53231943"
       y="3.4627986"
       transform="rotate(90)" /><rect
       style="fill:#e6e6e6;fill-rule:evenodd;stroke:#cccccc;stroke-width:0.0246388;stroke-linejoin:round;stroke-miterlimit:4;stroke-dasharray:none"
       id="rect114"
       width="0.13411112"
       height="0.12088203"
       x="0.93231928"
       y="3.4627986"
       transform="rotate(90)" /><rect
       style="fill:#e6e6e6;fill-rule:evenodd;stroke:#cccccc;stroke-width:0.0246388;stroke-linejoin:round;stroke-miterlimit:4;stroke-dasharray:none"
       id="rect115"
       width="0.13411112"
       height="0.12088203"
       x="1.3323194"
       y="3.4627986"
       transform="rotate(90)" /><rect
       style="fill:#e6e6e6;fill-rule:evenodd;stroke:#cccccc;stroke-width:0.0246388;stroke-linejoin:round;stroke-miterlimit:4;stroke-dasharray:none"
       id="rect116"
       width="0.13411112"
       height="0.12088203"
       x="1.7323194"
       y="3.4627986"
       transform="rotate(90)" /><rect
       style="fill:#e6e6e6;fill-rule:evenodd;stroke:#cccccc;stroke-width:0.0246388;stroke-linejoin:round;stroke-miterlimit:4;stroke-dasharray:none"
       id="rect117"
       width="0.13411112"
       height="0.12088203"
       x="2.1323195"
       y="3.4627986"
       transform="rotate(90)" /><rect
       style="fill:#e6e6e6;fill-rule:evenodd;stroke:#cccccc;stroke-width:0.0246388;stroke-linejoin:round;stroke-miterlimit:4;stroke-dasharray:none"
       id="rect118"
       width="0.13411112"
       height="0.12088203"
       x="2.5323193"
       y="3.4627986"
       transform="rotate(90)" /></g><g
     id="g146"
     transform="translate(7.0836806)"><rect
       style="fill:#e6e6e6;fill-rule:evenodd;stroke:#cccccc;stroke-width:0.0246388;stroke-linejoin:round;stroke-miterlimit:4;stroke-dasharray:none"
       id="rect133"
       width="0.13411112"
       height="0.12088203"
       x="-2.6676805"
       y="3.4623194"
       transform="rotate(90)" /><rect
       style="fill:#e6e6e6;fill-rule:evenodd;stroke:#cccccc;stroke-width:0.0246388;stroke-linejoin:round;stroke-miterlimit:4;stroke-dasharray:none"
       id="rect134"
       width="0.13411112"
       height="0.12088203"
       x="-2.2676806"
       y="3.4623194"
       transform="rotate(90)" /><rect
       style="fill:#e6e6e6;fill-rule:evenodd;stroke:#cccccc;stroke-width:0.0246388;stroke-linejoin:round;stroke-miterlimit:4;stroke-dasharray:none"
       id="rect135"
       width="0.13411112"
       height="0.12088203"
       x="-1.8676805"
       y="3.4623194"
       transform="rotate(90)" /><rect
       style="fill:#e6e6e6;fill-rule:evenodd;stroke:#cccccc;stroke-width:0.0246388;stroke-linejoin:round;stroke-miterlimit:4;stroke-dasharray:none"
       id="rect136"
       width="0.13411112"
       height="0.12088203"
       x="-1.4676806"
       y="3.4623194"
       transform="rotate(90)" /><rect
       style="fill:#e6e6e6;fill-rule:evenodd;stroke:#cccccc;stroke-width:0.0246388;stroke-linejoin:round;stroke-miterlimit:4;stroke-dasharray:none"
       id="rect137"
       width="0.13411112"
       height="0.12088203"
       x="-1.0676806"
       y="3.4627986"
       transform="rotate(90)" /><rect
       style="fill:#e6e6e6;fill-rule:evenodd;stroke:#cccccc;stroke-width:0.0246388;stroke-linejoin:round;stroke-miterlimit:4;stroke-dasharray:none"
       id="rect138"
       width="0.13411112"
       height="0.12088203"
       x="-0.66768074"
       y="3.4627986"
       transform="rotate(90)" /><rect
       style="fill:#e6e6e6;fill-rule:evenodd;stroke:#cccccc;stroke-width:0.0246388;stroke-linejoin:round;stroke-miterlimit:4;stroke-dasharray:none"
       id="rect139"
       width="0.13411112"
       height="0.12088203"
       x="-0.26768064"
       y="3.4627986"
       transform="rotate(90)" /><rect
       style="fill:#e6e6e6;fill-rule:evenodd;stroke:#cccccc;stroke-width:0.0246388;stroke-linejoin:round;stroke-miterlimit:4;stroke-dasharray:none"
       id="rect140"
       width="0.13411112"
       height="0.12088203"
       x="0.13231933"
       y="3.4627986"
       transform="rotate(90)" /><rect
       style="fill:#e6e6e6;fill-rule:evenodd;stroke:#cccccc;stroke-width:0.0246388;stroke-linejoin:round;stroke-miterlimit:4;stroke-dasharray:none"
       id="rect141"
       width="0.13411112"
       height="0.12088203"
       x="0.53231943"
       y="3.4627986"
       transform="rotate(90)" /><rect
       style="fill:#e6e6e6;fill-rule:evenodd;stroke:#cccccc;stroke-width:0.0246388;stroke-linejoin:round;stroke-miterlimit:4;stroke-dasharray:none"
       id="rect142"
       width="0.13411112"
       height="0.12088203"
       x="0.93231928"
       y="3.4627986"
       transform="rotate(90)" /><rect
       style="fill:#e6e6e6;fill-rule:evenodd;stroke:#cccccc;stroke-width:0.0246388;stroke-linejoin:round;stroke-miterlimit:4;stroke-dasharray:none"
       id="rect143"
       width="0.13411112"
       height="0.12088203"
       x="1.3323194"
       y="3.4627986"
       transform="rotate(90)" /><rect
       style="fill:#e6e6e6;fill-rule:evenodd;stroke:#cccccc;stroke-width:0.0246388;stroke-linejoin:round;stroke-miterlimit:4;stroke-dasharray:none"
       id="rect144"
       width="0.13411112"
       height="0.12088203"
       x="1.7323194"
       y="3.4627986"
       transform="rotate(90)" /><rect
       style="fill:#e6e6e6;fill-rule:evenodd;stroke:#cccccc;stroke-width:0.0246388;stroke-linejoin:round;stroke-miterlimit:4;stroke-dasharray:none"
       id="rect145"
       width="0.13411112"
       height="0.12088203"
       x="2.1323195"
       y="3.4627986"
       transform="rotate(90)" /><rect
       style="fill:#e6e6e6;fill-rule:evenodd;stroke:#cccccc;stroke-width:0.0246388;stroke-linejoin:round;stroke-miterlimit:4;stroke-dasharray:none"
       id="rect146"
       width="0.13411112"
       height="0.12088203"
       x="2.5323193"
       y="3.4627986"
       transform="rotate(90)" /></g><g
     id="g160"
     transform="rotate(-90,-3.5415278,-3.5421528)"><rect
       style="fill:#e6e6e6;fill-rule:evenodd;stroke:#cccccc;stroke-width:0.0246388;stroke-linejoin:round;stroke-miterlimit:4;stroke-dasharray:none"
       id="rect147"
       width="0.13411112"
       height="0.12088203"
       x="-2.6676805"
       y="3.4623194"
       transform="rotate(90)" /><rect
       style="fill:#e6e6e6;fill-rule:evenodd;stroke:#cccccc;stroke-width:0.0246388;stroke-linejoin:round;stroke-miterlimit:4;stroke-dasharray:none"
       id="rect148"
       width="0.13411112"
       height="0.12088203"
       x="-2.2676806"
       y="3.4623194"
       transform="rotate(90)" /><rect
       style="fill:#e6e6e6;fill-rule:evenodd;stroke:#cccccc;stroke-width:0.0246388;stroke-linejoin:round;stroke-miterlimit:4;stroke-dasharray:none"
       id="rect149"
       width="0.13411112"
       height="0.12088203"
       x="-1.8676805"
       y="3.4623194"
       transform="rotate(90)" /><rect
       style="fill:#e6e6e6;fill-rule:evenodd;stroke:#cccccc;stroke-width:0.0246388;stroke-linejoin:round;stroke-miterlimit:4;stroke-dasharray:none"
       id="rect150"
       width="0.13411112"
       height="0.12088203"
       x="-1.4676806"
       y="3.4623194"
       transform="rotate(90)" /><rect
       style="fill:#e6e6e6;fill-rule:evenodd;stroke:#cccccc;stroke-width:0.0246388;stroke-linejoin:round;stroke-miterlimit:4;stroke-dasharray:none"
       id="rect151"
       width="0.13411112"
       height="0.12088203"
       x="-1.0676806"
       y="3.4627986"
       transform="rotate(90)" /><rect
       style="fill:#e6e6e6;fill-rule:evenodd;stroke:#cccccc;stroke-width:0.0246388;stroke-linejoin:round;stroke-miterlimit:4;stroke-dasharray:none"
       id="rect152"
       width="0.13411112"
       height="0.12088203"
       x="-0.66768074"
       y="3.4627986"
       transform="rotate(90)" /><rect
       style="fill:#e6e6e6;fill-rule:evenodd;stroke:#cccccc;stroke-width:0.0246388;stroke-linejoin:round;stroke-miterlimit:4;stroke-dasharray:none"
       id="rect153"
       width="0.13411112"
       height="0.12088203"
       x="-0.26768064"
       y="3.4627986"
       transform="rotate(90)" /><rect
       style="fill:#e6e6e6;fill-rule:evenodd;stroke:#cccccc;stroke-width:0.0246388;stroke-linejoin:round;stroke-miterlimit:4;stroke-dasharray:none"
       id="rect154"
       width="0.13411112"
       height="0.12088203"
       x="0.13231933"
       y="3.4627986"
       transform="rotate(90)" /><rect
       style="fill:#e6e6e6;fill-rule:evenodd;stroke:#cccccc;stroke-width:0.0246388;stroke-linejoin:round;stroke-miterlimit:4;stroke-dasharray:none"
       id="rect155"
       width="0.13411112"
       height="0.12088203"
       x="0.53231943"
       y="3.4627986"
       transform="rotate(90)" /><rect
       style="fill:#e6e6e6;fill-rule:evenodd;stroke:#cccccc;stroke-width:0.0246388;stroke-linejoin:round;stroke-miterlimit:4;stroke-dasharray:none"
       id="rect156"
       width="0.13411112"
       height="0.12088203"
       x="0.93231928"
       y="3.4627986"
       transform="rotate(90)" /><rect
       style="fill:#e6e6e6;fill-rule:evenodd;stroke:#cccccc;stroke-width:0.0246388;stroke-linejoin:round;stroke-miterlimit:4;stroke-dasharray:none"
       id="rect157"
       width="0.13411112"
       height="0.12088203"
       x="1.3323194"
       y="3.4627986"
       transform="rotate(90)" /><rect
       style="fill:#e6e6e6;fill-rule:evenodd;stroke:#cccccc;stroke-width:0.0246388;stroke-linejoin:round;stroke-miterlimit:4;stroke-dasharray:none"
       id="rect158"
       width="0.13411112"
       height="0.12088203"
       x="1.7323194"
       y="3.4627986"
       transform="rotate(90)" /><rect
       style="fill:#e6e6e6;fill-rule:evenodd;stroke:#cccccc;stroke-width:0.0246388;stroke-linejoin:round;stroke-miterlimit:4;stroke-dasharray:none"
       id="rect159"
       width="0.13411112"
       height="0.12088203"
       x="2.1323195"
       y="3.4627986"
       transform="rotate(90)" /><rect
       style="fill:#e6e6e6;fill-rule:evenodd;stroke:#cccccc;stroke-width:0.0246388;stroke-linejoin:round;stroke-miterlimit:4;stroke-dasharray:none"
       id="rect160"
       width="0.13411112"
       height="0.12088203"
       x="2.5323193"
       y="3.4627986"
       transform="rotate(90)" /></g><rect
     id="origin"
     fill="red"
     width="1.0"
     height="1.0"
     x="0"
     y="0" /><g
     id="g174"
     transform="rotate(-90,0.02531242,0.02468742)"><rect
       style="fill:#e6e6e6;fill-rule:evenodd;stroke:#cccccc;stroke-width:0.0246388;stroke-linejoin:round;stroke-miterlimit:4;stroke-dasharray:none"
       id="rect161"
       width="0.13411112"
       height="0.12088203"
       x="-2.6676805"
       y="3.4623194"
       transform="rotate(90)" /><rect
       style="fill:#e6e6e6;fill-rule:evenodd;stroke:#cccccc;stroke-width:0.0246388;stroke-linejoin:round;stroke-miterlimit:4;stroke-dasharray:none"
       id="rect162"
       width="0.13411112"
       height="0.12088203"
       x="-2.2676806"
       y="3.4623194"
       transform="rotate(90)" /><rect
       style="fill:#e6e6e6;fill-rule:evenodd;stroke:#cccccc;stroke-width:0.0246388;stroke-linejoin:round;stroke-miterlimit:4;stroke-dasharray:none"
       id="rect163"
       width="0.13411112"
       height="0.12088203"
       x="-1.8676805"
       y="3.4623194"
       transform="rotate(90)" /><rect
       style="fill:#e6e6e6;fill-rule:evenodd;stroke:#cccccc;stroke-width:0.0246388;stroke-linejoin:round;stroke-miterlimit:4;stroke-dasharray:none"
       id="rect164"
       width="0.13411112"
       height="0.12088203"
       x="-1.4676806"
       y="3.4623194"
       transform="rotate(90)" /><rect
       style="fill:#e6e6e6;fill-rule:evenodd;stroke:#cccccc;stroke-width:0.0246388;stroke-linejoin:round;stroke-miterlimit:4;stroke-dasharray:none"
       id="rect165"
       width="0.13411112"
       height="0.12088203"
       x="-1.0676806"
       y="3.4627986"
       transform="rotate(90)" /><rect
       style="fill:#e6e6e6;fill-rule:evenodd;stroke:#cccccc;stroke-width:0.0246388;stroke-linejoin:round;stroke-miterlimit:4;stroke-dasharray:none"
       id="rect166"
       width="0.13411112"
       height="0.12088203"
       x="-0.66768074"
       y="3.4627986"
       transform="rotate(90)" /><rect
       style="fill:#e6e6e6;fill-rule:evenodd;stroke:#cccccc;stroke-width:0.0246388;stroke-linejoin:round;stroke-miterlimit:4;stroke-dasharray:none"
       id="rect167"
       width="0.13411112"
       height="0.12088203"
       x="-0.26768064"
       y="3.4627986"
       transform="rotate(90)" /><rect
       style="fill:#e6e6e6;fill-rule:evenodd;stroke:#cccccc;stroke-width:0.0246388;stroke-linejoin:round;stroke-miterlimit:4;stroke-dasharray:none"
       id="rect168"
       width="0.13411112"
       height="0.12088203"
       x="0.13231933"
       y="3.4627986"
       transform="rotate(90)" /><rect
       style="fill:#e6e6e6;fill-rule:evenodd;stroke:#cccccc;stroke-width:0.0246388;stroke-linejoin:round;stroke-miterlimit:4;stroke-dasharray:none"
       id="rect169"
       width="0.13411112"
       height="0.12088203"
       x="0.53231943"
       y="3.4627986"
       transform="rotate(90)" /><rect
       style="fill:#e6e6e6;fill-rule:evenodd;stroke:#cccccc;stroke-width:0.0246388;stroke-linejoin:round;stroke-miterlimit:4;stroke-dasharray:none"
       id="rect170"
       width="0.13411112"
       height="0.12088203"
       x="0.93231928"
       y="3.4627986"
       transform="rotate(90)" /><rect
       style="fill:#e6e6e6;fill-rule:evenodd;stroke:#cccccc;stroke-width:0.0246388;stroke-linejoin:round;stroke-miterlimit:4;stroke-dasharray:none"
       id="rect171"
       width="0.13411112"
       height="0.12088203"
       x="1.3323194"
       y="3.4627986"
       transform="rotate(90)" /><rect
       style="fill:#e6e6e6;fill-rule:evenodd;stroke:#cccccc;stroke-width:0.0246388;stroke-linejoin:round;stroke-miterlimit:4;stroke-dasharray:none"
       id="rect172"
       width="0.13411112"
       height="0.12088203"
       x="1.7323194"
       y="3.4627986"
       transform="rotate(90)" /><rect
       style="fill:#e6e6e6;fill-rule:evenodd;stroke:#cccccc;stroke-width:0.0246388;stroke-linejoin:round;stroke-miterlimit:4;stroke-dasharray:none"
       id="rect173"
       width="0.13411112"
       height="0.12088203"
       x="2.1323195"
       y="3.4627986"
       transform="rotate(90)" /><rect
       style="fill:#e6e6e6;fill-rule:evenodd;stroke:#cccccc;stroke-width:0.0246388;stroke-linejoin:round;stroke-miterlimit:4;stroke-dasharray:none"
       id="rect174"
       width="0.13411112"
       height="0.12088203"
       x="2.5323193"
       y="3.4627986"
       transform="rotate(90)" /></g></svg>
